<mxfile host="app.diagrams.net" modified="2022-05-05T12:21:14.170Z" agent="5.0 (Windows NT 10.0; Win64; x64) AppleWebKit/537.36 (KHTML, like Gecko) Chrome/100.0.4896.127 Safari/537.36" etag="IWJ5n6v447tnHcyO2Xko" version="17.4.0" type="gitlab">
  <diagram id="P_v2lEunYsfqhP2wtpaC" name="Page-1">
    <mxGraphModel dx="1632" dy="411" grid="1" gridSize="10" guides="1" tooltips="1" connect="1" arrows="1" fold="1" page="1" pageScale="1" pageWidth="850" pageHeight="1100" math="0" shadow="0">
      <root>
        <mxCell id="0" />
        <mxCell id="1" parent="0" />
        <mxCell id="aV6zrsSSjs-TkLNRd9kL-1" value="ConnectionFactory" style="swimlane;fontStyle=1;align=center;verticalAlign=top;childLayout=stackLayout;horizontal=1;startSize=26;horizontalStack=0;resizeParent=1;resizeParentMax=0;resizeLast=0;collapsible=1;marginBottom=0;" vertex="1" parent="1">
          <mxGeometry x="70" y="400" width="280" height="190" as="geometry" />
        </mxCell>
        <mxCell id="aV6zrsSSjs-TkLNRd9kL-2" value="- LOGGER: logger&#xa;- DRIVER: String&#xa;-DBURL: String&#xa;-USER: String&#xa;-PASS: String" style="text;strokeColor=none;fillColor=none;align=left;verticalAlign=top;spacingLeft=4;spacingRight=4;overflow=hidden;rotatable=0;points=[[0,0.5],[1,0.5]];portConstraint=eastwest;" vertex="1" parent="aV6zrsSSjs-TkLNRd9kL-1">
          <mxGeometry y="26" width="280" height="84" as="geometry" />
        </mxCell>
        <mxCell id="aV6zrsSSjs-TkLNRd9kL-3" value="" style="line;strokeWidth=1;fillColor=none;align=left;verticalAlign=middle;spacingTop=-1;spacingLeft=3;spacingRight=3;rotatable=0;labelPosition=right;points=[];portConstraint=eastwest;" vertex="1" parent="aV6zrsSSjs-TkLNRd9kL-1">
          <mxGeometry y="110" width="280" height="8" as="geometry" />
        </mxCell>
        <mxCell id="aV6zrsSSjs-TkLNRd9kL-4" value="- createConnection(): Connection&#xa;- close(connection: Connection): void&#xa;- close(statement: Statement): void&#xa;- close(resultSet: ResultSet): void" style="text;strokeColor=none;fillColor=none;align=left;verticalAlign=top;spacingLeft=4;spacingRight=4;overflow=hidden;rotatable=0;points=[[0,0.5],[1,0.5]];portConstraint=eastwest;" vertex="1" parent="aV6zrsSSjs-TkLNRd9kL-1">
          <mxGeometry y="118" width="280" height="72" as="geometry" />
        </mxCell>
        <mxCell id="aV6zrsSSjs-TkLNRd9kL-5" value="TableFactory" style="swimlane;fontStyle=1;align=center;verticalAlign=top;childLayout=stackLayout;horizontal=1;startSize=26;horizontalStack=0;resizeParent=1;resizeParentMax=0;resizeLast=0;collapsible=1;marginBottom=0;" vertex="1" parent="1">
          <mxGeometry x="430" y="400" width="280" height="60" as="geometry" />
        </mxCell>
        <mxCell id="aV6zrsSSjs-TkLNRd9kL-7" value="" style="line;strokeWidth=1;fillColor=none;align=left;verticalAlign=middle;spacingTop=-1;spacingLeft=3;spacingRight=3;rotatable=0;labelPosition=right;points=[];portConstraint=eastwest;" vertex="1" parent="aV6zrsSSjs-TkLNRd9kL-5">
          <mxGeometry y="26" width="280" height="8" as="geometry" />
        </mxCell>
        <mxCell id="aV6zrsSSjs-TkLNRd9kL-8" value="+ createTable(t: List&lt;T&gt;): &lt;T&gt;DefaultTableMode;" style="text;strokeColor=none;fillColor=none;align=left;verticalAlign=top;spacingLeft=4;spacingRight=4;overflow=hidden;rotatable=0;points=[[0,0.5],[1,0.5]];portConstraint=eastwest;" vertex="1" parent="aV6zrsSSjs-TkLNRd9kL-5">
          <mxGeometry y="34" width="280" height="26" as="geometry" />
        </mxCell>
        <mxCell id="aV6zrsSSjs-TkLNRd9kL-9" value="Order" style="swimlane;fontStyle=1;align=center;verticalAlign=top;childLayout=stackLayout;horizontal=1;startSize=26;horizontalStack=0;resizeParent=1;resizeParentMax=0;resizeLast=0;collapsible=1;marginBottom=0;" vertex="1" parent="1">
          <mxGeometry x="550" y="620" width="160" height="124" as="geometry" />
        </mxCell>
        <mxCell id="aV6zrsSSjs-TkLNRd9kL-10" value="- id: int&#xa;- idclient: int&#xa;- idproduct: int&#xa;- amount: int" style="text;strokeColor=none;fillColor=none;align=left;verticalAlign=top;spacingLeft=4;spacingRight=4;overflow=hidden;rotatable=0;points=[[0,0.5],[1,0.5]];portConstraint=eastwest;" vertex="1" parent="aV6zrsSSjs-TkLNRd9kL-9">
          <mxGeometry y="26" width="160" height="64" as="geometry" />
        </mxCell>
        <mxCell id="aV6zrsSSjs-TkLNRd9kL-11" value="" style="line;strokeWidth=1;fillColor=none;align=left;verticalAlign=middle;spacingTop=-1;spacingLeft=3;spacingRight=3;rotatable=0;labelPosition=right;points=[];portConstraint=eastwest;" vertex="1" parent="aV6zrsSSjs-TkLNRd9kL-9">
          <mxGeometry y="90" width="160" height="8" as="geometry" />
        </mxCell>
        <mxCell id="aV6zrsSSjs-TkLNRd9kL-12" value="+ getters/setters" style="text;strokeColor=none;fillColor=none;align=left;verticalAlign=top;spacingLeft=4;spacingRight=4;overflow=hidden;rotatable=0;points=[[0,0.5],[1,0.5]];portConstraint=eastwest;" vertex="1" parent="aV6zrsSSjs-TkLNRd9kL-9">
          <mxGeometry y="98" width="160" height="26" as="geometry" />
        </mxCell>
        <mxCell id="aV6zrsSSjs-TkLNRd9kL-13" value="Product" style="swimlane;fontStyle=1;align=center;verticalAlign=top;childLayout=stackLayout;horizontal=1;startSize=26;horizontalStack=0;resizeParent=1;resizeParentMax=0;resizeLast=0;collapsible=1;marginBottom=0;" vertex="1" parent="1">
          <mxGeometry x="270" y="610" width="160" height="124" as="geometry" />
        </mxCell>
        <mxCell id="aV6zrsSSjs-TkLNRd9kL-14" value="- id: int&#xa;- name: String&#xa;- price: float&#xa;- stock: int" style="text;strokeColor=none;fillColor=none;align=left;verticalAlign=top;spacingLeft=4;spacingRight=4;overflow=hidden;rotatable=0;points=[[0,0.5],[1,0.5]];portConstraint=eastwest;" vertex="1" parent="aV6zrsSSjs-TkLNRd9kL-13">
          <mxGeometry y="26" width="160" height="64" as="geometry" />
        </mxCell>
        <mxCell id="aV6zrsSSjs-TkLNRd9kL-15" value="" style="line;strokeWidth=1;fillColor=none;align=left;verticalAlign=middle;spacingTop=-1;spacingLeft=3;spacingRight=3;rotatable=0;labelPosition=right;points=[];portConstraint=eastwest;" vertex="1" parent="aV6zrsSSjs-TkLNRd9kL-13">
          <mxGeometry y="90" width="160" height="8" as="geometry" />
        </mxCell>
        <mxCell id="aV6zrsSSjs-TkLNRd9kL-16" value="+ getters/setters" style="text;strokeColor=none;fillColor=none;align=left;verticalAlign=top;spacingLeft=4;spacingRight=4;overflow=hidden;rotatable=0;points=[[0,0.5],[1,0.5]];portConstraint=eastwest;" vertex="1" parent="aV6zrsSSjs-TkLNRd9kL-13">
          <mxGeometry y="98" width="160" height="26" as="geometry" />
        </mxCell>
        <mxCell id="aV6zrsSSjs-TkLNRd9kL-17" value="Client" style="swimlane;fontStyle=1;align=center;verticalAlign=top;childLayout=stackLayout;horizontal=1;startSize=26;horizontalStack=0;resizeParent=1;resizeParentMax=0;resizeLast=0;collapsible=1;marginBottom=0;" vertex="1" parent="1">
          <mxGeometry x="-60" y="610" width="160" height="124" as="geometry" />
        </mxCell>
        <mxCell id="aV6zrsSSjs-TkLNRd9kL-18" value="- id: int&#xa;- name: String&#xa;- address: String&#xa;- email: String" style="text;strokeColor=none;fillColor=none;align=left;verticalAlign=top;spacingLeft=4;spacingRight=4;overflow=hidden;rotatable=0;points=[[0,0.5],[1,0.5]];portConstraint=eastwest;" vertex="1" parent="aV6zrsSSjs-TkLNRd9kL-17">
          <mxGeometry y="26" width="160" height="64" as="geometry" />
        </mxCell>
        <mxCell id="aV6zrsSSjs-TkLNRd9kL-19" value="" style="line;strokeWidth=1;fillColor=none;align=left;verticalAlign=middle;spacingTop=-1;spacingLeft=3;spacingRight=3;rotatable=0;labelPosition=right;points=[];portConstraint=eastwest;" vertex="1" parent="aV6zrsSSjs-TkLNRd9kL-17">
          <mxGeometry y="90" width="160" height="8" as="geometry" />
        </mxCell>
        <mxCell id="aV6zrsSSjs-TkLNRd9kL-20" value="+ getters/setters" style="text;strokeColor=none;fillColor=none;align=left;verticalAlign=top;spacingLeft=4;spacingRight=4;overflow=hidden;rotatable=0;points=[[0,0.5],[1,0.5]];portConstraint=eastwest;" vertex="1" parent="aV6zrsSSjs-TkLNRd9kL-17">
          <mxGeometry y="98" width="160" height="26" as="geometry" />
        </mxCell>
        <mxCell id="aV6zrsSSjs-TkLNRd9kL-21" value="OrderBLL" style="swimlane;fontStyle=1;align=center;verticalAlign=top;childLayout=stackLayout;horizontal=1;startSize=26;horizontalStack=0;resizeParent=1;resizeParentMax=0;resizeLast=0;collapsible=1;marginBottom=0;" vertex="1" parent="1">
          <mxGeometry x="510" y="20" width="430" height="150" as="geometry" />
        </mxCell>
        <mxCell id="aV6zrsSSjs-TkLNRd9kL-22" value="- OrderDAO: AbstractDAO&lt;Order&gt;" style="text;strokeColor=none;fillColor=none;align=left;verticalAlign=top;spacingLeft=4;spacingRight=4;overflow=hidden;rotatable=0;points=[[0,0.5],[1,0.5]];portConstraint=eastwest;" vertex="1" parent="aV6zrsSSjs-TkLNRd9kL-21">
          <mxGeometry y="26" width="430" height="26" as="geometry" />
        </mxCell>
        <mxCell id="aV6zrsSSjs-TkLNRd9kL-23" value="" style="line;strokeWidth=1;fillColor=none;align=left;verticalAlign=middle;spacingTop=-1;spacingLeft=3;spacingRight=3;rotatable=0;labelPosition=right;points=[];portConstraint=eastwest;" vertex="1" parent="aV6zrsSSjs-TkLNRd9kL-21">
          <mxGeometry y="52" width="430" height="8" as="geometry" />
        </mxCell>
        <mxCell id="aV6zrsSSjs-TkLNRd9kL-24" value="+ findOrderById(id: int): Order&#xa;+ add(id: String, idclient: String, idproduct: String, amount: String): boolean&#xa;+ delete(id: String, idclient: String, idproduct: String, amount: String): boolean&#xa;+ update(id: String, idclient: String, idproduct: String, amount: String): boolean&#xa;+ findAll(): List&lt;Order&gt;" style="text;strokeColor=none;fillColor=none;align=left;verticalAlign=top;spacingLeft=4;spacingRight=4;overflow=hidden;rotatable=0;points=[[0,0.5],[1,0.5]];portConstraint=eastwest;" vertex="1" parent="aV6zrsSSjs-TkLNRd9kL-21">
          <mxGeometry y="60" width="430" height="90" as="geometry" />
        </mxCell>
        <mxCell id="aV6zrsSSjs-TkLNRd9kL-25" value="ProductBLL" style="swimlane;fontStyle=1;align=center;verticalAlign=top;childLayout=stackLayout;horizontal=1;startSize=26;horizontalStack=0;resizeParent=1;resizeParentMax=0;resizeLast=0;collapsible=1;marginBottom=0;" vertex="1" parent="1">
          <mxGeometry x="80" y="210" width="440" height="150" as="geometry" />
        </mxCell>
        <mxCell id="aV6zrsSSjs-TkLNRd9kL-26" value="- productDAO: &lt;AbstractDAO&lt;Product&gt;" style="text;strokeColor=none;fillColor=none;align=left;verticalAlign=top;spacingLeft=4;spacingRight=4;overflow=hidden;rotatable=0;points=[[0,0.5],[1,0.5]];portConstraint=eastwest;" vertex="1" parent="aV6zrsSSjs-TkLNRd9kL-25">
          <mxGeometry y="26" width="440" height="26" as="geometry" />
        </mxCell>
        <mxCell id="aV6zrsSSjs-TkLNRd9kL-27" value="" style="line;strokeWidth=1;fillColor=none;align=left;verticalAlign=middle;spacingTop=-1;spacingLeft=3;spacingRight=3;rotatable=0;labelPosition=right;points=[];portConstraint=eastwest;" vertex="1" parent="aV6zrsSSjs-TkLNRd9kL-25">
          <mxGeometry y="52" width="440" height="8" as="geometry" />
        </mxCell>
        <mxCell id="aV6zrsSSjs-TkLNRd9kL-28" value="+ findProductById(id: int): Product&#xa;+ add(id: String, name: String, price: String, stock: String): boolean&#xa;+ delete(id: String, name: String, price: String, stock: String): boolean&#xa;+ update(id: String, name: String, price: String, stock: String): boolean&#xa;+ findAll(): List&lt;Product&gt;" style="text;strokeColor=none;fillColor=none;align=left;verticalAlign=top;spacingLeft=4;spacingRight=4;overflow=hidden;rotatable=0;points=[[0,0.5],[1,0.5]];portConstraint=eastwest;" vertex="1" parent="aV6zrsSSjs-TkLNRd9kL-25">
          <mxGeometry y="60" width="440" height="90" as="geometry" />
        </mxCell>
        <mxCell id="aV6zrsSSjs-TkLNRd9kL-29" value="ClientBLL" style="swimlane;fontStyle=1;align=center;verticalAlign=top;childLayout=stackLayout;horizontal=1;startSize=26;horizontalStack=0;resizeParent=1;resizeParentMax=0;resizeLast=0;collapsible=1;marginBottom=0;" vertex="1" parent="1">
          <mxGeometry x="50" y="30" width="400" height="140" as="geometry" />
        </mxCell>
        <mxCell id="aV6zrsSSjs-TkLNRd9kL-30" value="- clientDAO: AbstractDAO&lt;Client&gt;" style="text;strokeColor=none;fillColor=none;align=left;verticalAlign=top;spacingLeft=4;spacingRight=4;overflow=hidden;rotatable=0;points=[[0,0.5],[1,0.5]];portConstraint=eastwest;" vertex="1" parent="aV6zrsSSjs-TkLNRd9kL-29">
          <mxGeometry y="26" width="400" height="26" as="geometry" />
        </mxCell>
        <mxCell id="aV6zrsSSjs-TkLNRd9kL-31" value="" style="line;strokeWidth=1;fillColor=none;align=left;verticalAlign=middle;spacingTop=-1;spacingLeft=3;spacingRight=3;rotatable=0;labelPosition=right;points=[];portConstraint=eastwest;" vertex="1" parent="aV6zrsSSjs-TkLNRd9kL-29">
          <mxGeometry y="52" width="400" height="8" as="geometry" />
        </mxCell>
        <mxCell id="aV6zrsSSjs-TkLNRd9kL-32" value="+ findClientById(id: int): Client&#xa;+ add(id: String, name: String, address: String, email: String): boolean&#xa;+ delete(id: String, name: String, address: String, email: String): boolean&#xa;+ update(id: String, name: String, address: String, email: String): boolean&#xa;+ findAll(): List&lt;Client&gt;" style="text;strokeColor=none;fillColor=none;align=left;verticalAlign=top;spacingLeft=4;spacingRight=4;overflow=hidden;rotatable=0;points=[[0,0.5],[1,0.5]];portConstraint=eastwest;" vertex="1" parent="aV6zrsSSjs-TkLNRd9kL-29">
          <mxGeometry y="60" width="400" height="80" as="geometry" />
        </mxCell>
        <mxCell id="aV6zrsSSjs-TkLNRd9kL-34" value="AbstractDAO &lt;T&gt;" style="swimlane;fontStyle=1;align=center;verticalAlign=top;childLayout=stackLayout;horizontal=1;startSize=26;horizontalStack=0;resizeParent=1;resizeParentMax=0;resizeLast=0;collapsible=1;marginBottom=0;" vertex="1" parent="1">
          <mxGeometry x="380" y="760" width="260" height="160" as="geometry" />
        </mxCell>
        <mxCell id="aV6zrsSSjs-TkLNRd9kL-35" value="# LOGGER: logger&#xa;- type: Class&lt;T&gt;" style="text;strokeColor=none;fillColor=none;align=left;verticalAlign=top;spacingLeft=4;spacingRight=4;overflow=hidden;rotatable=0;points=[[0,0.5],[1,0.5]];portConstraint=eastwest;" vertex="1" parent="aV6zrsSSjs-TkLNRd9kL-34">
          <mxGeometry y="26" width="260" height="34" as="geometry" />
        </mxCell>
        <mxCell id="aV6zrsSSjs-TkLNRd9kL-36" value="" style="line;strokeWidth=1;fillColor=none;align=left;verticalAlign=middle;spacingTop=-1;spacingLeft=3;spacingRight=3;rotatable=0;labelPosition=right;points=[];portConstraint=eastwest;" vertex="1" parent="aV6zrsSSjs-TkLNRd9kL-34">
          <mxGeometry y="60" width="260" height="8" as="geometry" />
        </mxCell>
        <mxCell id="aV6zrsSSjs-TkLNRd9kL-37" value="+ findAll(): List&lt;T&gt;&#xa;+ findById(id: int): T&#xa;- createObjects(resultSet: ResultSet): List&lt;T&gt;&#xa;+ insert(t: T): T&#xa;+ update(t: T): T&#xa;+ delete(t: T): T" style="text;strokeColor=none;fillColor=none;align=left;verticalAlign=top;spacingLeft=4;spacingRight=4;overflow=hidden;rotatable=0;points=[[0,0.5],[1,0.5]];portConstraint=eastwest;" vertex="1" parent="aV6zrsSSjs-TkLNRd9kL-34">
          <mxGeometry y="68" width="260" height="92" as="geometry" />
        </mxCell>
        <mxCell id="aV6zrsSSjs-TkLNRd9kL-38" value="ClientDAO" style="swimlane;fontStyle=1;align=center;verticalAlign=top;childLayout=stackLayout;horizontal=1;startSize=26;horizontalStack=0;resizeParent=1;resizeParentMax=0;resizeLast=0;collapsible=1;marginBottom=0;" vertex="1" parent="1">
          <mxGeometry x="110" y="1020" width="160" height="60" as="geometry" />
        </mxCell>
        <mxCell id="aV6zrsSSjs-TkLNRd9kL-39" value="# LOGGER: Logger" style="text;strokeColor=none;fillColor=none;align=left;verticalAlign=top;spacingLeft=4;spacingRight=4;overflow=hidden;rotatable=0;points=[[0,0.5],[1,0.5]];portConstraint=eastwest;" vertex="1" parent="aV6zrsSSjs-TkLNRd9kL-38">
          <mxGeometry y="26" width="160" height="26" as="geometry" />
        </mxCell>
        <mxCell id="aV6zrsSSjs-TkLNRd9kL-40" value="" style="line;strokeWidth=1;fillColor=none;align=left;verticalAlign=middle;spacingTop=-1;spacingLeft=3;spacingRight=3;rotatable=0;labelPosition=right;points=[];portConstraint=eastwest;" vertex="1" parent="aV6zrsSSjs-TkLNRd9kL-38">
          <mxGeometry y="52" width="160" height="8" as="geometry" />
        </mxCell>
        <mxCell id="aV6zrsSSjs-TkLNRd9kL-42" value="ProductDAO" style="swimlane;fontStyle=1;align=center;verticalAlign=top;childLayout=stackLayout;horizontal=1;startSize=26;horizontalStack=0;resizeParent=1;resizeParentMax=0;resizeLast=0;collapsible=1;marginBottom=0;" vertex="1" parent="1">
          <mxGeometry x="390" y="1020" width="160" height="60" as="geometry" />
        </mxCell>
        <mxCell id="aV6zrsSSjs-TkLNRd9kL-43" value="# LOGGER: logger" style="text;strokeColor=none;fillColor=none;align=left;verticalAlign=top;spacingLeft=4;spacingRight=4;overflow=hidden;rotatable=0;points=[[0,0.5],[1,0.5]];portConstraint=eastwest;" vertex="1" parent="aV6zrsSSjs-TkLNRd9kL-42">
          <mxGeometry y="26" width="160" height="26" as="geometry" />
        </mxCell>
        <mxCell id="aV6zrsSSjs-TkLNRd9kL-44" value="" style="line;strokeWidth=1;fillColor=none;align=left;verticalAlign=middle;spacingTop=-1;spacingLeft=3;spacingRight=3;rotatable=0;labelPosition=right;points=[];portConstraint=eastwest;" vertex="1" parent="aV6zrsSSjs-TkLNRd9kL-42">
          <mxGeometry y="52" width="160" height="8" as="geometry" />
        </mxCell>
        <mxCell id="aV6zrsSSjs-TkLNRd9kL-46" value="OrderDAO" style="swimlane;fontStyle=1;align=center;verticalAlign=top;childLayout=stackLayout;horizontal=1;startSize=26;horizontalStack=0;resizeParent=1;resizeParentMax=0;resizeLast=0;collapsible=1;marginBottom=0;" vertex="1" parent="1">
          <mxGeometry x="640" y="1020" width="160" height="60" as="geometry" />
        </mxCell>
        <mxCell id="aV6zrsSSjs-TkLNRd9kL-47" value="# LOGGER: logger" style="text;strokeColor=none;fillColor=none;align=left;verticalAlign=top;spacingLeft=4;spacingRight=4;overflow=hidden;rotatable=0;points=[[0,0.5],[1,0.5]];portConstraint=eastwest;" vertex="1" parent="aV6zrsSSjs-TkLNRd9kL-46">
          <mxGeometry y="26" width="160" height="26" as="geometry" />
        </mxCell>
        <mxCell id="aV6zrsSSjs-TkLNRd9kL-48" value="" style="line;strokeWidth=1;fillColor=none;align=left;verticalAlign=middle;spacingTop=-1;spacingLeft=3;spacingRight=3;rotatable=0;labelPosition=right;points=[];portConstraint=eastwest;" vertex="1" parent="aV6zrsSSjs-TkLNRd9kL-46">
          <mxGeometry y="52" width="160" height="8" as="geometry" />
        </mxCell>
        <mxCell id="aV6zrsSSjs-TkLNRd9kL-50" value="ProductView" style="swimlane;fontStyle=1;align=center;verticalAlign=top;childLayout=stackLayout;horizontal=1;startSize=26;horizontalStack=0;resizeParent=1;resizeParentMax=0;resizeLast=0;collapsible=1;marginBottom=0;" vertex="1" parent="1">
          <mxGeometry x="-310" y="1290" width="160" height="108" as="geometry" />
        </mxCell>
        <mxCell id="aV6zrsSSjs-TkLNRd9kL-51" value="- contentPane: JPanel&#xa;+ productController: ProductController" style="text;strokeColor=none;fillColor=none;align=left;verticalAlign=top;spacingLeft=4;spacingRight=4;overflow=hidden;rotatable=0;points=[[0,0.5],[1,0.5]];portConstraint=eastwest;" vertex="1" parent="aV6zrsSSjs-TkLNRd9kL-50">
          <mxGeometry y="26" width="160" height="34" as="geometry" />
        </mxCell>
        <mxCell id="aV6zrsSSjs-TkLNRd9kL-52" value="" style="line;strokeWidth=1;fillColor=none;align=left;verticalAlign=middle;spacingTop=-1;spacingLeft=3;spacingRight=3;rotatable=0;labelPosition=right;points=[];portConstraint=eastwest;" vertex="1" parent="aV6zrsSSjs-TkLNRd9kL-50">
          <mxGeometry y="60" width="160" height="8" as="geometry" />
        </mxCell>
        <mxCell id="aV6zrsSSjs-TkLNRd9kL-53" value="+ ProductView(title: String)&#xa;+ prepareGui(): void" style="text;strokeColor=none;fillColor=none;align=left;verticalAlign=top;spacingLeft=4;spacingRight=4;overflow=hidden;rotatable=0;points=[[0,0.5],[1,0.5]];portConstraint=eastwest;" vertex="1" parent="aV6zrsSSjs-TkLNRd9kL-50">
          <mxGeometry y="68" width="160" height="40" as="geometry" />
        </mxCell>
        <mxCell id="aV6zrsSSjs-TkLNRd9kL-54" value="ClientController" style="swimlane;fontStyle=1;align=center;verticalAlign=top;childLayout=stackLayout;horizontal=1;startSize=26;horizontalStack=0;resizeParent=1;resizeParentMax=0;resizeLast=0;collapsible=1;marginBottom=0;" vertex="1" parent="1">
          <mxGeometry x="-70" y="1522" width="230" height="128" as="geometry" />
        </mxCell>
        <mxCell id="aV6zrsSSjs-TkLNRd9kL-55" value="- clientView: ClientView&#xa;- clientBLL: ClientBLL" style="text;strokeColor=none;fillColor=none;align=left;verticalAlign=top;spacingLeft=4;spacingRight=4;overflow=hidden;rotatable=0;points=[[0,0.5],[1,0.5]];portConstraint=eastwest;" vertex="1" parent="aV6zrsSSjs-TkLNRd9kL-54">
          <mxGeometry y="26" width="230" height="34" as="geometry" />
        </mxCell>
        <mxCell id="aV6zrsSSjs-TkLNRd9kL-56" value="" style="line;strokeWidth=1;fillColor=none;align=left;verticalAlign=middle;spacingTop=-1;spacingLeft=3;spacingRight=3;rotatable=0;labelPosition=right;points=[];portConstraint=eastwest;" vertex="1" parent="aV6zrsSSjs-TkLNRd9kL-54">
          <mxGeometry y="60" width="230" height="8" as="geometry" />
        </mxCell>
        <mxCell id="aV6zrsSSjs-TkLNRd9kL-57" value="+ ClientController(clientView: ClientView)&#xa;+ actionPerformed(e: ActionEvent): void&#xa;+ updateTable(): void" style="text;strokeColor=none;fillColor=none;align=left;verticalAlign=top;spacingLeft=4;spacingRight=4;overflow=hidden;rotatable=0;points=[[0,0.5],[1,0.5]];portConstraint=eastwest;" vertex="1" parent="aV6zrsSSjs-TkLNRd9kL-54">
          <mxGeometry y="68" width="230" height="60" as="geometry" />
        </mxCell>
        <mxCell id="aV6zrsSSjs-TkLNRd9kL-58" value="ProductController" style="swimlane;fontStyle=1;align=center;verticalAlign=top;childLayout=stackLayout;horizontal=1;startSize=26;horizontalStack=0;resizeParent=1;resizeParentMax=0;resizeLast=0;collapsible=1;marginBottom=0;" vertex="1" parent="1">
          <mxGeometry x="-425" y="1490" width="270" height="128" as="geometry" />
        </mxCell>
        <mxCell id="aV6zrsSSjs-TkLNRd9kL-59" value="- productView: ProductView&#xa;- productBLL: ProductBLL" style="text;strokeColor=none;fillColor=none;align=left;verticalAlign=top;spacingLeft=4;spacingRight=4;overflow=hidden;rotatable=0;points=[[0,0.5],[1,0.5]];portConstraint=eastwest;" vertex="1" parent="aV6zrsSSjs-TkLNRd9kL-58">
          <mxGeometry y="26" width="270" height="44" as="geometry" />
        </mxCell>
        <mxCell id="aV6zrsSSjs-TkLNRd9kL-60" value="" style="line;strokeWidth=1;fillColor=none;align=left;verticalAlign=middle;spacingTop=-1;spacingLeft=3;spacingRight=3;rotatable=0;labelPosition=right;points=[];portConstraint=eastwest;" vertex="1" parent="aV6zrsSSjs-TkLNRd9kL-58">
          <mxGeometry y="70" width="270" height="8" as="geometry" />
        </mxCell>
        <mxCell id="aV6zrsSSjs-TkLNRd9kL-61" value="+ ProductController(productView: ProductView)&#xa;+ actionPerformed(e: ActionEvent): void&#xa;+ updateTable(): void" style="text;strokeColor=none;fillColor=none;align=left;verticalAlign=top;spacingLeft=4;spacingRight=4;overflow=hidden;rotatable=0;points=[[0,0.5],[1,0.5]];portConstraint=eastwest;" vertex="1" parent="aV6zrsSSjs-TkLNRd9kL-58">
          <mxGeometry y="78" width="270" height="50" as="geometry" />
        </mxCell>
        <mxCell id="aV6zrsSSjs-TkLNRd9kL-66" value="ClientView" style="swimlane;fontStyle=1;align=center;verticalAlign=top;childLayout=stackLayout;horizontal=1;startSize=26;horizontalStack=0;resizeParent=1;resizeParentMax=0;resizeLast=0;collapsible=1;marginBottom=0;" vertex="1" parent="1">
          <mxGeometry x="-50" y="1302" width="160" height="118" as="geometry" />
        </mxCell>
        <mxCell id="aV6zrsSSjs-TkLNRd9kL-67" value="- contentPane: JPanel&#xa;+ clientController: ClientController" style="text;strokeColor=none;fillColor=none;align=left;verticalAlign=top;spacingLeft=4;spacingRight=4;overflow=hidden;rotatable=0;points=[[0,0.5],[1,0.5]];portConstraint=eastwest;" vertex="1" parent="aV6zrsSSjs-TkLNRd9kL-66">
          <mxGeometry y="26" width="160" height="44" as="geometry" />
        </mxCell>
        <mxCell id="aV6zrsSSjs-TkLNRd9kL-68" value="" style="line;strokeWidth=1;fillColor=none;align=left;verticalAlign=middle;spacingTop=-1;spacingLeft=3;spacingRight=3;rotatable=0;labelPosition=right;points=[];portConstraint=eastwest;" vertex="1" parent="aV6zrsSSjs-TkLNRd9kL-66">
          <mxGeometry y="70" width="160" height="8" as="geometry" />
        </mxCell>
        <mxCell id="aV6zrsSSjs-TkLNRd9kL-69" value="+ ClientView(title: String)&#xa;+ prepareGui(): void" style="text;strokeColor=none;fillColor=none;align=left;verticalAlign=top;spacingLeft=4;spacingRight=4;overflow=hidden;rotatable=0;points=[[0,0.5],[1,0.5]];portConstraint=eastwest;" vertex="1" parent="aV6zrsSSjs-TkLNRd9kL-66">
          <mxGeometry y="78" width="160" height="40" as="geometry" />
        </mxCell>
        <mxCell id="aV6zrsSSjs-TkLNRd9kL-70" value="Controller" style="swimlane;fontStyle=1;align=center;verticalAlign=top;childLayout=stackLayout;horizontal=1;startSize=26;horizontalStack=0;resizeParent=1;resizeParentMax=0;resizeLast=0;collapsible=1;marginBottom=0;" vertex="1" parent="1">
          <mxGeometry x="220" y="1130" width="250" height="60" as="geometry" />
        </mxCell>
        <mxCell id="aV6zrsSSjs-TkLNRd9kL-72" value="" style="line;strokeWidth=1;fillColor=none;align=left;verticalAlign=middle;spacingTop=-1;spacingLeft=3;spacingRight=3;rotatable=0;labelPosition=right;points=[];portConstraint=eastwest;" vertex="1" parent="aV6zrsSSjs-TkLNRd9kL-70">
          <mxGeometry y="26" width="250" height="8" as="geometry" />
        </mxCell>
        <mxCell id="aV6zrsSSjs-TkLNRd9kL-73" value="+ actionPerformed(e: ActionEvent): void" style="text;strokeColor=none;fillColor=none;align=left;verticalAlign=top;spacingLeft=4;spacingRight=4;overflow=hidden;rotatable=0;points=[[0,0.5],[1,0.5]];portConstraint=eastwest;" vertex="1" parent="aV6zrsSSjs-TkLNRd9kL-70">
          <mxGeometry y="34" width="250" height="26" as="geometry" />
        </mxCell>
        <mxCell id="aV6zrsSSjs-TkLNRd9kL-74" value="View" style="swimlane;fontStyle=1;align=center;verticalAlign=top;childLayout=stackLayout;horizontal=1;startSize=26;horizontalStack=0;resizeParent=1;resizeParentMax=0;resizeLast=0;collapsible=1;marginBottom=0;" vertex="1" parent="1">
          <mxGeometry x="-60" y="1130" width="180" height="120" as="geometry" />
        </mxCell>
        <mxCell id="aV6zrsSSjs-TkLNRd9kL-75" value="- contentPane: JPanel&#xa;+ controller: Controller" style="text;strokeColor=none;fillColor=none;align=left;verticalAlign=top;spacingLeft=4;spacingRight=4;overflow=hidden;rotatable=0;points=[[0,0.5],[1,0.5]];portConstraint=eastwest;" vertex="1" parent="aV6zrsSSjs-TkLNRd9kL-74">
          <mxGeometry y="26" width="180" height="44" as="geometry" />
        </mxCell>
        <mxCell id="aV6zrsSSjs-TkLNRd9kL-76" value="" style="line;strokeWidth=1;fillColor=none;align=left;verticalAlign=middle;spacingTop=-1;spacingLeft=3;spacingRight=3;rotatable=0;labelPosition=right;points=[];portConstraint=eastwest;" vertex="1" parent="aV6zrsSSjs-TkLNRd9kL-74">
          <mxGeometry y="70" width="180" height="8" as="geometry" />
        </mxCell>
        <mxCell id="aV6zrsSSjs-TkLNRd9kL-77" value="+ View(title: String)&#xa;+ prepareGui(): void" style="text;strokeColor=none;fillColor=none;align=left;verticalAlign=top;spacingLeft=4;spacingRight=4;overflow=hidden;rotatable=0;points=[[0,0.5],[1,0.5]];portConstraint=eastwest;" vertex="1" parent="aV6zrsSSjs-TkLNRd9kL-74">
          <mxGeometry y="78" width="180" height="42" as="geometry" />
        </mxCell>
        <mxCell id="aV6zrsSSjs-TkLNRd9kL-62" value="OrderView" style="swimlane;fontStyle=1;align=center;verticalAlign=top;childLayout=stackLayout;horizontal=1;startSize=26;horizontalStack=0;resizeParent=1;resizeParentMax=0;resizeLast=0;collapsible=1;marginBottom=0;" vertex="1" parent="1">
          <mxGeometry x="210" y="1290" width="160" height="110" as="geometry" />
        </mxCell>
        <mxCell id="aV6zrsSSjs-TkLNRd9kL-63" value="- contentPane: JPanel&#xa;+ orderController: OrderController" style="text;strokeColor=none;fillColor=none;align=left;verticalAlign=top;spacingLeft=4;spacingRight=4;overflow=hidden;rotatable=0;points=[[0,0.5],[1,0.5]];portConstraint=eastwest;" vertex="1" parent="aV6zrsSSjs-TkLNRd9kL-62">
          <mxGeometry y="26" width="160" height="34" as="geometry" />
        </mxCell>
        <mxCell id="aV6zrsSSjs-TkLNRd9kL-64" value="" style="line;strokeWidth=1;fillColor=none;align=left;verticalAlign=middle;spacingTop=-1;spacingLeft=3;spacingRight=3;rotatable=0;labelPosition=right;points=[];portConstraint=eastwest;" vertex="1" parent="aV6zrsSSjs-TkLNRd9kL-62">
          <mxGeometry y="60" width="160" height="8" as="geometry" />
        </mxCell>
        <mxCell id="aV6zrsSSjs-TkLNRd9kL-65" value="+ OrderView(title: String)&#xa;+ prepareGui(): void" style="text;strokeColor=none;fillColor=none;align=left;verticalAlign=top;spacingLeft=4;spacingRight=4;overflow=hidden;rotatable=0;points=[[0,0.5],[1,0.5]];portConstraint=eastwest;" vertex="1" parent="aV6zrsSSjs-TkLNRd9kL-62">
          <mxGeometry y="68" width="160" height="42" as="geometry" />
        </mxCell>
        <mxCell id="aV6zrsSSjs-TkLNRd9kL-78" value="OrderController" style="swimlane;fontStyle=1;align=center;verticalAlign=top;childLayout=stackLayout;horizontal=1;startSize=26;horizontalStack=0;resizeParent=1;resizeParentMax=0;resizeLast=0;collapsible=1;marginBottom=0;" vertex="1" parent="1">
          <mxGeometry x="225" y="1490" width="240" height="120" as="geometry" />
        </mxCell>
        <mxCell id="aV6zrsSSjs-TkLNRd9kL-79" value="- orderView: OrderView&#xa;- orderBLL: OrderBLL" style="text;strokeColor=none;fillColor=none;align=left;verticalAlign=top;spacingLeft=4;spacingRight=4;overflow=hidden;rotatable=0;points=[[0,0.5],[1,0.5]];portConstraint=eastwest;" vertex="1" parent="aV6zrsSSjs-TkLNRd9kL-78">
          <mxGeometry y="26" width="240" height="34" as="geometry" />
        </mxCell>
        <mxCell id="aV6zrsSSjs-TkLNRd9kL-80" value="" style="line;strokeWidth=1;fillColor=none;align=left;verticalAlign=middle;spacingTop=-1;spacingLeft=3;spacingRight=3;rotatable=0;labelPosition=right;points=[];portConstraint=eastwest;" vertex="1" parent="aV6zrsSSjs-TkLNRd9kL-78">
          <mxGeometry y="60" width="240" height="8" as="geometry" />
        </mxCell>
        <mxCell id="aV6zrsSSjs-TkLNRd9kL-81" value="+ OrderController(orderView: OrderView)&#xa;+ actionPerformed(e: ActionEvent): void&#xa;+ updateTable(): void" style="text;strokeColor=none;fillColor=none;align=left;verticalAlign=top;spacingLeft=4;spacingRight=4;overflow=hidden;rotatable=0;points=[[0,0.5],[1,0.5]];portConstraint=eastwest;" vertex="1" parent="aV6zrsSSjs-TkLNRd9kL-78">
          <mxGeometry y="68" width="240" height="52" as="geometry" />
        </mxCell>
        <mxCell id="aV6zrsSSjs-TkLNRd9kL-82" value="1" style="endArrow=open;html=1;endSize=12;startArrow=diamondThin;startSize=14;startFill=1;edgeStyle=orthogonalEdgeStyle;align=left;verticalAlign=bottom;rounded=0;exitX=1.004;exitY=0.28;exitDx=0;exitDy=0;exitPerimeter=0;" edge="1" parent="1" source="aV6zrsSSjs-TkLNRd9kL-75">
          <mxGeometry x="-1" y="3" relative="1" as="geometry">
            <mxPoint x="230" y="1250" as="sourcePoint" />
            <mxPoint x="220" y="1168" as="targetPoint" />
          </mxGeometry>
        </mxCell>
        <mxCell id="aV6zrsSSjs-TkLNRd9kL-83" value="" style="endArrow=block;dashed=1;endFill=0;endSize=12;html=1;rounded=0;entryX=0.5;entryY=0;entryDx=0;entryDy=0;exitX=0.493;exitY=1.071;exitDx=0;exitDy=0;exitPerimeter=0;" edge="1" parent="1" source="aV6zrsSSjs-TkLNRd9kL-77" target="aV6zrsSSjs-TkLNRd9kL-66">
          <mxGeometry width="160" relative="1" as="geometry">
            <mxPoint x="230" y="1510" as="sourcePoint" />
            <mxPoint x="390" y="1510" as="targetPoint" />
          </mxGeometry>
        </mxCell>
        <mxCell id="aV6zrsSSjs-TkLNRd9kL-84" value="" style="endArrow=block;dashed=1;endFill=0;endSize=12;html=1;rounded=0;entryX=0;entryY=0;entryDx=0;entryDy=0;exitX=1.011;exitY=1.103;exitDx=0;exitDy=0;exitPerimeter=0;" edge="1" parent="1" source="aV6zrsSSjs-TkLNRd9kL-77" target="aV6zrsSSjs-TkLNRd9kL-62">
          <mxGeometry width="160" relative="1" as="geometry">
            <mxPoint y="1310" as="sourcePoint" />
            <mxPoint x="160" y="1310" as="targetPoint" />
          </mxGeometry>
        </mxCell>
        <mxCell id="aV6zrsSSjs-TkLNRd9kL-85" value="" style="endArrow=block;dashed=1;endFill=0;endSize=12;html=1;rounded=0;exitX=0.007;exitY=1.024;exitDx=0;exitDy=0;exitPerimeter=0;entryX=1;entryY=0;entryDx=0;entryDy=0;" edge="1" parent="1" source="aV6zrsSSjs-TkLNRd9kL-77" target="aV6zrsSSjs-TkLNRd9kL-50">
          <mxGeometry width="160" relative="1" as="geometry">
            <mxPoint y="1310" as="sourcePoint" />
            <mxPoint x="160" y="1310" as="targetPoint" />
          </mxGeometry>
        </mxCell>
        <mxCell id="aV6zrsSSjs-TkLNRd9kL-86" value="" style="endArrow=diamondThin;endFill=1;endSize=24;html=1;rounded=0;entryX=0.529;entryY=1.042;entryDx=0;entryDy=0;entryPerimeter=0;exitX=0.5;exitY=0;exitDx=0;exitDy=0;" edge="1" parent="1" source="aV6zrsSSjs-TkLNRd9kL-54" target="aV6zrsSSjs-TkLNRd9kL-69">
          <mxGeometry width="160" relative="1" as="geometry">
            <mxPoint y="1450" as="sourcePoint" />
            <mxPoint x="160" y="1450" as="targetPoint" />
          </mxGeometry>
        </mxCell>
        <mxCell id="aV6zrsSSjs-TkLNRd9kL-87" value="" style="endArrow=diamondThin;endFill=1;endSize=24;html=1;rounded=0;entryX=0.521;entryY=1.119;entryDx=0;entryDy=0;entryPerimeter=0;exitX=0.346;exitY=-0.025;exitDx=0;exitDy=0;exitPerimeter=0;" edge="1" parent="1" source="aV6zrsSSjs-TkLNRd9kL-78" target="aV6zrsSSjs-TkLNRd9kL-65">
          <mxGeometry width="160" relative="1" as="geometry">
            <mxPoint y="1450" as="sourcePoint" />
            <mxPoint x="160" y="1450" as="targetPoint" />
          </mxGeometry>
        </mxCell>
        <mxCell id="aV6zrsSSjs-TkLNRd9kL-89" value="" style="endArrow=diamondThin;endFill=1;endSize=24;html=1;rounded=0;entryX=0.658;entryY=1.058;entryDx=0;entryDy=0;entryPerimeter=0;exitX=0.715;exitY=-0.018;exitDx=0;exitDy=0;exitPerimeter=0;" edge="1" parent="1" source="aV6zrsSSjs-TkLNRd9kL-58" target="aV6zrsSSjs-TkLNRd9kL-53">
          <mxGeometry width="160" relative="1" as="geometry">
            <mxPoint y="1450" as="sourcePoint" />
            <mxPoint x="160" y="1450" as="targetPoint" />
          </mxGeometry>
        </mxCell>
        <mxCell id="aV6zrsSSjs-TkLNRd9kL-90" value="" style="endArrow=diamondThin;endFill=1;endSize=24;html=1;rounded=0;entryX=0.5;entryY=0;entryDx=0;entryDy=0;exitX=0.525;exitY=1.075;exitDx=0;exitDy=0;exitPerimeter=0;" edge="1" parent="1" source="aV6zrsSSjs-TkLNRd9kL-69" target="aV6zrsSSjs-TkLNRd9kL-54">
          <mxGeometry width="160" relative="1" as="geometry">
            <mxPoint y="1450" as="sourcePoint" />
            <mxPoint x="160" y="1450" as="targetPoint" />
          </mxGeometry>
        </mxCell>
        <mxCell id="aV6zrsSSjs-TkLNRd9kL-91" value="" style="endArrow=diamondThin;endFill=1;endSize=24;html=1;rounded=0;exitX=0.517;exitY=1.04;exitDx=0;exitDy=0;exitPerimeter=0;" edge="1" parent="1" source="aV6zrsSSjs-TkLNRd9kL-65">
          <mxGeometry width="160" relative="1" as="geometry">
            <mxPoint x="300" y="1410" as="sourcePoint" />
            <mxPoint x="310" y="1490" as="targetPoint" />
          </mxGeometry>
        </mxCell>
        <mxCell id="aV6zrsSSjs-TkLNRd9kL-92" value="" style="endArrow=diamondThin;endFill=1;endSize=24;html=1;rounded=0;exitX=0.667;exitY=1.125;exitDx=0;exitDy=0;exitPerimeter=0;" edge="1" parent="1" source="aV6zrsSSjs-TkLNRd9kL-53">
          <mxGeometry width="160" relative="1" as="geometry">
            <mxPoint y="1450" as="sourcePoint" />
            <mxPoint x="-230" y="1490" as="targetPoint" />
          </mxGeometry>
        </mxCell>
        <mxCell id="aV6zrsSSjs-TkLNRd9kL-93" value="name" style="endArrow=block;endFill=1;html=1;edgeStyle=orthogonalEdgeStyle;align=left;verticalAlign=top;rounded=0;entryX=0.413;entryY=1.018;entryDx=0;entryDy=0;entryPerimeter=0;" edge="1" parent="1" target="aV6zrsSSjs-TkLNRd9kL-37">
          <mxGeometry x="-1" relative="1" as="geometry">
            <mxPoint x="490" y="1016" as="sourcePoint" />
            <mxPoint x="420" y="910" as="targetPoint" />
            <Array as="points">
              <mxPoint x="487" y="1016" />
            </Array>
          </mxGeometry>
        </mxCell>
        <mxCell id="aV6zrsSSjs-TkLNRd9kL-95" value="name" style="endArrow=block;endFill=1;html=1;edgeStyle=orthogonalEdgeStyle;align=left;verticalAlign=top;rounded=0;entryX=0.418;entryY=1.04;entryDx=0;entryDy=0;entryPerimeter=0;exitX=0.438;exitY=0;exitDx=0;exitDy=0;exitPerimeter=0;" edge="1" parent="1" source="aV6zrsSSjs-TkLNRd9kL-38" target="aV6zrsSSjs-TkLNRd9kL-37">
          <mxGeometry x="-1" relative="1" as="geometry">
            <mxPoint x="260" y="910" as="sourcePoint" />
            <mxPoint x="420" y="910" as="targetPoint" />
            <Array as="points">
              <mxPoint x="180" y="960" />
              <mxPoint x="489" y="960" />
            </Array>
          </mxGeometry>
        </mxCell>
        <mxCell id="aV6zrsSSjs-TkLNRd9kL-99" value="name" style="endArrow=block;endFill=1;html=1;edgeStyle=orthogonalEdgeStyle;align=left;verticalAlign=top;rounded=0;exitX=0.442;exitY=-0.017;exitDx=0;exitDy=0;exitPerimeter=0;entryX=0.413;entryY=1.04;entryDx=0;entryDy=0;entryPerimeter=0;" edge="1" parent="1" source="aV6zrsSSjs-TkLNRd9kL-46" target="aV6zrsSSjs-TkLNRd9kL-37">
          <mxGeometry x="-1" relative="1" as="geometry">
            <mxPoint x="430" y="910" as="sourcePoint" />
            <mxPoint x="590" y="910" as="targetPoint" />
            <Array as="points">
              <mxPoint x="711" y="965" />
              <mxPoint x="490" y="965" />
              <mxPoint x="490" y="950" />
              <mxPoint x="487" y="950" />
            </Array>
          </mxGeometry>
        </mxCell>
      </root>
    </mxGraphModel>
  </diagram>
</mxfile>
